<?xml version="1.0" encoding="UTF-8" standalone="no" ?>
<!DOCTYPE svg PUBLIC "-//W3C//DTD SVG 1.1//EN" "http://www.w3.org/Graphics/SVG/1.1/DTD/svg11.dtd">
<svg xmlns="http://www.w3.org/2000/svg" xmlns:xlink="http://www.w3.org/1999/xlink" version="1.1" width="500" height="500" viewBox="0 0 500 500" xml:space="preserve">
<desc>Created with Fabric.js 5.3.0</desc>
<defs>
</defs>
<g transform="matrix(3.4058749447 0 0 3.4058749447 191.6236433615 137.362118985)" id="rnFZ65ojGNNeVsUOFlLE8"  >
<path style="stroke: none; stroke-width: 1; stroke-dasharray: none; stroke-linecap: butt; stroke-dashoffset: 0; stroke-linejoin: miter; stroke-miterlimit: 4; fill: rgb(255,255,255); fill-rule: nonzero; opacity: 1;" vector-effect="non-scaling-stroke"  transform=" translate(-181.8454307846, -109.3164369373)" d="M 202.31 124.94 Q 205.76 125.37 210.01 124.58 Q 214.54 123.73 216.75 120.4 Q 218.73 117.42 217.74 113.31 Q 215.77 105.19 206.75 103.75 Q 189.17 100.95 174.21 111.89 C 174.12066448999136 111.95718407599115 174.00339182359681 111.97457793493365 173.89840177768482 111.9362161873889 C 173.79341173177284 111.89785443984412 173.71497793337414 111.80895244953487 173.69 111.7 Q 169.25 93.65 182.69 82.44 Q 192.94 73.89 207.75 74.09 Q 228.65 74.37 235 93.5 Q 236.32 97.47 235.94 101.9 Q 235.61 105.78 233.73 109.88 Q 231.2 115.39 227 119.7 Q 222.64 124.16 217.78 127 Q 209.25 131.98 199.06 130.19 Q 195.22 129.51 180 126 Q 175.85 125.04 169.56 126.29 Q 163.49 127.49 160.06 132.56 Q 157.76 135.97 156.63 143.57 C 156.58923468419906 143.86333368769843 156.3561274210751 144.08811569142512 156.07 144.11 Q 145.43 145.06 136.94 139.81 Q 133.72 137.82 131.4 134.51 Q 129.17 131.3 128.44 127.62 Q 126.78 119.11 133.81 113.56 Q 137.83 110.4 144.51 109.97 Q 154.75 109.31 164.81 113.19 Q 173.58 116.56 175.93 117.58 Q 189.08 123.27 202.31 124.94 Z" stroke-linecap="round" />
</g>
<g transform="matrix(3.4058749447 0 0 3.4058749447 264.3531264771 290.1690731764)" id="gZO1xk34TDQ7zEDHTM358"  >
<path style="stroke: none; stroke-width: 0; stroke-dasharray: none; stroke-linecap: butt; stroke-dashoffset: 0; stroke-linejoin: miter; stroke-miterlimit: 4; fill: rgb(255,255,255); fill-rule: nonzero; opacity: 1;" vector-effect="non-scaling-stroke"  transform=" translate(0, 0)" d="M 35.76044 -26.50213 C 35.040440000000004 -22.0288 33.66044 -17.7188 31.620440000000002 -13.572130000000001 C 29.50711 -9.28546 26.830440000000003 -5.722130000000002 23.59044 -2.882130000000002 C 17.357110000000002 2.584539999999998 9.763770000000001 5.464539999999998 0.8104399999999998 5.757869999999999 C -6.68956 6.004539999999999 -14.19289 6.1911999999999985 -21.69956 6.317869999999999 C -23.519560000000002 6.3511999999999995 -25.44956 6.784539999999999 -27.48956 7.617869999999999 C -29.51623 8.437869999999998 -31.13289 9.507869999999999 -32.33956 10.827869999999999 C -34.672889999999995 13.37454 -35.459559999999996 16.371199999999998 -34.69956 19.81787 C -33.966229999999996 23.14454 -31.822889999999997 26.08454 -28.26956 28.63787 C -24.90289 31.05787 -21.20956 32.7712 -17.18956 33.77787 C -14.43623 34.4712 -11.76289 34.5012 -9.16956 33.86787 C -7.236230000000001 33.394540000000006 -4.92956 32.224540000000005 -2.2495600000000007 30.357870000000005 C 2.430439999999999 27.097870000000007 6.700439999999999 23.334540000000004 10.56044 19.067870000000006 C 18.60711 10.161200000000006 27.69044 2.487870000000008 37.81044 -3.9521299999999933 C 42.95044 -7.232129999999993 48.28044 -9.308799999999994 53.80044 -10.182129999999994 C 56.91377 -10.675459999999994 59.62044 -10.138799999999994 61.92044 -8.572129999999994 C 63.893769999999996 -7.225459999999995 65.35377 -5.132129999999995 66.30044 -2.292129999999994 C 67.26043999999999 0.6012000000000062 67.58377 3.6378700000000057 67.27044 6.817870000000005 C 66.10377 18.604540000000007 61.987109999999994 28.847870000000007 54.92043999999999 37.54787 C 49.91376999999999 43.7012 44.667109999999994 47.647870000000005 39.18043999999999 49.38787000000001 C 31.613769999999988 51.781200000000005 24.14710999999999 50.014540000000004 16.78043999999999 44.08787000000001 C 13.960439999999991 41.81454000000001 11.32043999999999 39.08120000000001 8.860439999999992 35.88787000000001 C 8.788199999999991 35.793910000000004 8.765339999999991 35.67089000000001 8.799319999999991 35.558980000000005 C 8.833289999999991 35.447070000000004 8.919749999999992 35.360620000000004 9.030439999999992 35.327870000000004 C 25.343769999999992 30.161200000000004 35.76710999999999 19.237870000000004 40.300439999999995 2.557870000000001 C 40.37376999999999 2.2912000000000012 40.28710999999999 2.2145400000000013 40.04044 2.327870000000001 C 31.09377 6.34787 23.400439999999996 12.067870000000001 16.96044 19.48787 C 14.447109999999999 22.38787 12.000439999999998 25.344540000000002 9.620439999999999 28.35787 C 5.033769999999999 34.18454 -0.0895600000000023 39.48787 -5.749560000000001 44.26787 C -9.94289 47.80787 -14.50289 50.66787 -19.429560000000002 52.84787 C -24.782890000000002 55.2212 -29.926230000000004 56.49787 -34.85956 56.67787 C -44.65956 57.0312 -52.83623 53.22454 -59.38956 45.25787 C -63.989560000000004 39.657869999999996 -66.60289 33.32787 -67.22956 26.26787 C -67.83623 19.49454 -66.67956000000001 13.381199999999998 -63.75956000000001 7.927869999999999 C -60.59289000000001 2.0145399999999984 -55.65623000000001 -2.3554600000000008 -48.949560000000005 -5.182130000000001 C -45.20956 -6.755460000000001 -40.86956000000001 -7.775460000000001 -35.92956000000001 -8.242130000000001 C -27.476230000000008 -9.03546 -20.06623000000001 -8.765460000000001 -13.699560000000009 -7.432130000000001 C -6.312890000000009 -5.885460000000001 -0.14623000000000808 -5.128800000000001 4.800439999999991 -5.162130000000001 C 19.17376999999999 -5.275460000000002 28.00710999999999 -12.198800000000002 31.30043999999999 -25.93213 C 31.62710999999999 -27.29213 32.04710999999999 -31.54213 32.56043999999999 -38.68213 C 32.85376999999999 -42.7888 33.940439999999995 -46.59546 35.82043999999999 -50.10213 C 36.23586999999999 -50.87848 36.66879999999999 -51.58513 37.11920999999999 -52.222080000000005 C 38.26618999999999 -53.844080000000005 39.52659999999999 -55.01409 40.90043999999999 -55.732130000000005 C 43.43376999999999 -57.058800000000005 46.21376999999999 -57.022130000000004 49.24043999999999 -55.622130000000006 C 51.52710999999999 -54.56213 53.64043999999999 -52.772130000000004 55.580439999999996 -50.25213000000001 C 58.56711 -46.365460000000006 60.48376999999999 -42.11213000000001 61.330439999999996 -37.49213000000001 C 62.183769999999996 -32.798800000000014 61.840439999999994 -28.31213000000001 60.300439999999995 -24.03213000000001 C 57.487109999999994 -16.19880000000001 51.340439999999994 -11.78546000000001 41.86044 -10.792130000000009 C 41.5871 -10.76350000000001 41.33739 -10.960630000000009 41.29044 -11.242130000000008 C 40.49711 -16.588800000000006 38.977109999999996 -21.71880000000001 36.730439999999994 -26.63213000000001 C 36.263769999999994 -27.65880000000001 35.940439999999995 -27.61546000000001 35.760439999999996 -26.50213000000001 z" stroke-linecap="round" />
</g>
</svg>